<?xml version="1.0" encoding="utf-8"?>
<!-- Generator: Adobe Adobe Illustrator 29.2.0, SVG Export Plug-In . SVG Version: 6.00 Build 0)  -->
<svg version="1.1" id="Layer_1" xmlns="http://www.w3.org/2000/svg" xmlns:xlink="http://www.w3.org/1999/xlink" x="0px" y="0px"
	 viewBox="0 0 878.85 642.52" style="enable-background:new 0 0 878.85 642.52;" xml:space="preserve">
<style type="text/css">
	.st0{fill:#065165;}
	.st1{fill:url(#SVGID_1_);}
	.st2{fill:url(#SVGID_00000154423716889540472870000003089471836656015256_);}
	.st3{fill:url(#SVGID_00000150092947703211998310000006512958680574048947_);}
	.st4{fill:url(#SVGID_00000074429070936640449430000018372594974892062616_);}
	.st5{fill:url(#SVGID_00000125597432594374776510000007084103495221678213_);}
	.st6{fill:url(#SVGID_00000003825380897931450390000011202723421168200349_);}
	.st7{fill:url(#SVGID_00000106110302442321471660000005281716762154223286_);}
	.st8{fill:url(#SVGID_00000163780758294706664310000017813559306446946705_);}
	.st9{fill:url(#SVGID_00000132803029302670107320000002660751157418389436_);}
	.st10{fill:url(#SVGID_00000162340323372146466550000006164800535673174667_);}
	.st11{fill:url(#SVGID_00000168835920543039723320000006315310129271835566_);}
	.st12{fill:url(#SVGID_00000114070547443067554260000016106770811950140329_);}
	.st13{fill:#D0ECF6;}
	.st14{fill:#FFDE21;}
	.st15{fill:#C7EDE4;}
	.st16{fill:#364D19;}
	.st17{fill:url(#SVGID_00000165956115410792567560000013249024052451099070_);}
	.st18{fill:url(#SVGID_00000142168694443905319950000000228964256414424241_);}
	.st19{fill:url(#SVGID_00000104703468461669805870000010951289704223578531_);}
	.st20{fill:url(#SVGID_00000068665702650708291710000003252109396879393693_);}
	.st21{fill:url(#SVGID_00000178184160770342218690000004305986831693826210_);}
	.st22{fill:url(#SVGID_00000139980279525834760510000012890924123224174766_);}
	.st23{fill:#FFFFFF;}
	.st24{fill:url(#SVGID_00000169553690383534871120000014111778658628288152_);}
	.st25{fill:url(#SVGID_00000078732883062305258240000009176792630315452805_);}
	.st26{fill:url(#SVGID_00000028324098511747555760000009400592107328667011_);}
	.st27{fill:url(#SVGID_00000069389072073946586830000011525903778652014251_);}
	.st28{fill:url(#SVGID_00000057827605952517906870000008041105021677275281_);}
	.st29{fill:url(#SVGID_00000000913563382463825930000014735143777313628856_);}
</style>
<g>
	<path d="M483.44,262.67l8.19-57.34c2.59-18.12-11.47-34.33-29.78-34.33H227.13c-11.39,0-21.81,6.44-26.9,16.63l-41.92,83.84
		c-10,20,4.54,43.53,26.9,43.53h204.65c18.3,0,32.37,16.21,29.78,34.33l-8.19,57.34c-2.59,18.12,11.47,34.33,29.78,34.33h234.73
		c11.39,0,21.81-6.44,26.9-16.63l41.92-83.84c10-20-4.54-43.53-26.9-43.53H513.22C494.92,297,480.86,280.79,483.44,262.67z"/>
	<path d="M573.44,91.67l8.19-57.34C584.22,16.21,570.16,0,551.86,0H317.13c-11.39,0-21.81,6.44-26.9,16.63l-41.92,83.84
		c-10,20,4.54,43.53,26.9,43.53h204.65c18.3,0,32.37,16.21,29.78,34.33l-8.19,57.34c-2.59,18.12,11.47,34.33,29.78,34.33h234.73
		c11.39,0,21.81-6.44,26.9-16.63l41.92-83.84c10-20-4.54-43.53-26.9-43.53H603.22C584.92,126,570.86,109.79,573.44,91.67z"/>
	<path d="M393.44,433.67l8.19-57.34c2.59-18.12-11.47-34.33-29.78-34.33H137.13c-11.39,0-21.81,6.44-26.9,16.63L68.3,442.47
		c-10,20,4.54,43.53,26.9,43.53h204.65c18.3,0,32.37,16.21,29.78,34.33l-8.19,57.34c-2.59,18.12,11.47,34.33,29.78,34.33h234.73
		c11.39,0,21.81-6.44,26.9-16.63l41.92-83.84c10-20-4.54-43.53-26.9-43.53H423.22C404.92,468,390.86,451.79,393.44,433.67z"/>
	<path d="M52.8,418.37l191.25-382.5C255.05,13.89,277.51,0,302.09,0h139.9l-243,486H94.6C59.86,486,37.27,449.44,52.8,418.37z"/>
</g>
</svg>
